<?xml version="1.0" encoding="UTF-8"?>
<svg id="Layer_2" data-name="Layer 2" xmlns="http://www.w3.org/2000/svg" viewBox="170 200 760 150">
  <defs>
    <style>
      .cls-1 {
        fill: #fff;
      }

      .cls-2 {
        fill: #dba73e;
      }

      .cls-3 {
        fill: #1cbbd3;
      }
    </style>
  </defs>
  <g>
    <path class="cls-3" d="m220.7,213.37c20.75,0,29.63,12.84,29.63,27.58,0,13.93-8.06,28.95-29.63,28.95h-24.22c-2.99,0-6.78,2.59-6.78,6.19v29.44h-16.12v-36.46c0-10.38,4.37-14.61,14.47-14.61h33.18c9.15,0,12.84-6.28,12.84-12.7s-3.96-12.29-12.7-12.29h-47.93v-16.11h47.25Z"/>
    <path class="cls-3" d="m279.81,233.44v43.15c0,8.47,6.28,14.88,17.75,14.88h11.74c11.47,0,17.62-6.42,17.62-14.88v-43.15h14.2v43.7c0,16.66-10.65,28.4-31.27,28.4h-13.38c-20.62,0-31.27-11.74-31.27-28.4v-43.7h14.61Z"/>
    <path class="cls-3" d="m375.94,202.17v31.27h31.95c19.12,0,31.13,11.74,31.13,36.05s-12.02,36.05-31.13,36.05h-19.94c-17.34,0-26.49-10.1-26.49-30.86v-72.51h14.47Zm0,45.2v26.63c0,12.29,4.5,17.48,16.25,17.48h14.2c12.56,0,18.02-6.42,18.02-21.98s-5.46-22.12-18.02-22.12h-30.45Z"/>
    <path class="cls-3" d="m517.04,335.83v-27.89c0-1.87-1.51-3.38-3.38-3.38h-28.58c-19.12,0-31.13-11.74-31.13-36.05s12.02-36.05,31.13-36.05h19.94c17.34,0,26.49,10.1,26.49,30.86v72.51h-14.47Zm0-45.2v-26.63c0-12.29-4.5-17.48-16.25-17.48h-14.2c-12.56,0-18.02,6.42-18.02,21.98,0,15.57,5.46,22.12,18.02,22.12h30.45Z"/>
    <path class="cls-3" d="m708.69,234.45c17.07,0,24.31,8.19,24.31,22.12s-6.69,20.76-24.44,20.76h-34.27v5.19c0,5.73,3.14,9.97,11.06,9.97h44.1v14.06h-44.1c-18.02,0-25.12-10.1-25.12-23.76v-24.58c0-13.65,7.1-23.76,25.12-23.76h23.35Zm-34.41,31.54h33.86c7.78,0,10.65-3.28,10.65-8.6s-3.14-9.01-10.24-9.01h-23.22c-7.92,0-11.06,4.37-11.06,9.97v7.65Z"/>
    <path class="cls-3" d="m797.63,234.62v13.93h-25.4c-.74,0-9.29,2.56-9.29,9.29v48.88h-14.47v-51.07c0-14.47,5.33-21.03,19.53-21.03h29.63Z"/>
    <path class="cls-3" d="m892.06,234.45l-43.42,101.05h-15.57l13.52-31.54c-8.19,0-11.06-2.59-13.52-8.88l-24.17-60.63h15.29l21.71,53.66c.96,2.59,1.64,3,4.37,3h1.91l24.44-56.67h15.43Z"/>
  </g>
  <polyline class="cls-3" points="341.13 277.13 341.13 305.54 326.92 305.54 326.92 276.59"/>
  <path class="cls-3" d="m559.57,234.45c3.05,0,5.52,2.47,5.52,5.52v37.63c0,8.47,7.99,16.09,19.46,16.09h11.74c11.47,0,19.37-7.63,19.37-16.09v-37.63c0-3.05,2.47-5.52,5.52-5.52h6.83v43.7c0,16.66-10.65,28.4-31.27,28.4h-13.38c-20.62,0-31.27-11.74-31.27-28.4v-43.7h7.48Z"/>
  <polygon class="cls-3" points="173.45 229.48 173.59 269.08 189.7 272.22 189.7 229.48 173.45 229.48"/>
  <path class="cls-1" d="m553.3,230.31c-1.41,0-3.13-.37-3.84-1.72-.95-1.82-1.49-4.47-.09-9.1,1.06-3.5,7.4-12.28,13.43-11.85,2.07.15,3.81,1.1,5.3,1.5,2.38.64,5.2-1.22,6.9-2.66,2.65-2.25,6.22-4.02,8.59-4.49,4.38-.87,10.08-.23,17.22,5.4,2.38,1.88,5.57,3.7,8.31,2.93,3.9-1.09,7.01-.76,8.68-.57s4.28,1.06,6.5,2.61c2.05,1.44,5.47,4.33,6.84,8.45.99,2.99,1.05,7.16.76,8.59-.23,1.1-.97,2.48-3.03,2.02-1.69-.38-1.74-.62-4.14-.79-1.93-.14-5.38.2-7.19.67s-3.27,1.54-4.47,2.74c-2.15,2.14-4.33,5.41-6.04,5.92-3.48,1.03-5.99-2.05-9.44-4.2-2.56-1.59-9.43-5.17-14.5-3.79-3.72,1.02-5.45,1.94-9.67,2.28-4.49.36-7.15-1.33-10.65-3.06-2.39-1.18-7.16-.88-9.48-.88Z"/>
  <path class="cls-2" d="m569.97,238.61s.08,29.91,0,39.87c-.05,5.74,6.41,9.27,10.78,9.82,6.26.78,13.5,1.03,19.12.02,3.81-.69,10.9-3.44,11.1-10.79.2-7.36.08-35.82.08-35.82,0,0-2.33,3.15-6.27,3.15-5.3,0-10.27-6.37-13.81-7.07s-8.13-.6-11.84.78c-3.71,1.38-9.17.05-9.17.05Z"/>
  <path class="cls-3" d="m625.45,282.79l14.27-2.48c2.94-.85,5.56-3.2,5.56-6.27v-34.03c0-3.07-2.49-5.56-5.56-5.56h-11.83v6.4h7.25c2.3,0,4.17,1.87,4.17,4.17v24.7c0,2.36-.69,3.96-3.95,4.77l-8.29,1.3-1.62,7.01Z"/>
</svg>